<svg xmlns="http://www.w3.org/2000/svg" version="1.1" xmlns:xlink="http://www.w3.org/1999/xlink" xmlns:svgjs="http://svgjs.dev/svgjs" width="1440" height="560" preserveAspectRatio="none" viewBox="0 0 1440 560"><g mask="url(&quot;#SvgjsMask1043&quot;)" fill="none"><rect width="1440" height="560" x="0" y="0" fill="rgba(0, 11, 41, 1)"></rect><path d="M1146.4 22.72 a96.08 96.08 0 1 0 192.16 0 a96.08 96.08 0 1 0 -192.16 0z" fill="rgba(173, 149, 81, 0.24)" class="triangle-float3"></path><path d="M411.31 486.03 a93.61 93.61 0 1 0 187.22 0 a93.61 93.61 0 1 0 -187.22 0z" fill="rgba(173, 149, 81, 0.24)" class="triangle-float3"></path><path d="M543.46 71.62 a127.51 127.51 0 1 0 255.02 0 a127.51 127.51 0 1 0 -255.02 0z" fill="rgba(173, 149, 81, 0.24)" class="triangle-float3"></path><path d="M1152.6 69.96 a112.58 112.58 0 1 0 225.16 0 a112.58 112.58 0 1 0 -225.16 0z" fill="rgba(173, 149, 81, 0.24)" class="triangle-float3"></path><path d="M351.67 360.43 a126.9 126.9 0 1 0 253.8 0 a126.9 126.9 0 1 0 -253.8 0z" fill="rgba(173, 149, 81, 0.24)" class="triangle-float3"></path><path d="M885.28 155.57 a150.29 150.29 0 1 0 300.58 0 a150.29 150.29 0 1 0 -300.58 0z" fill="rgba(173, 149, 81, 0.24)" class="triangle-float3"></path><path d="M962.73 247.68 a186.14 186.14 0 1 0 372.28 0 a186.14 186.14 0 1 0 -372.28 0z" fill="rgba(173, 149, 81, 0.24)" class="triangle-float2"></path><path d="M798.41 126.22 a106.51 106.51 0 1 0 213.02 0 a106.51 106.51 0 1 0 -213.02 0z" fill="rgba(173, 149, 81, 0.24)" class="triangle-float2"></path><path d="M1212.26 522.47 a97.08 97.08 0 1 0 194.16 0 a97.08 97.08 0 1 0 -194.16 0z" fill="rgba(173, 149, 81, 0.24)" class="triangle-float3"></path></g><defs><mask id="SvgjsMask1043"><rect width="1440" height="560" fill="#ffffff"></rect></mask><style>
                @keyframes float1 {
                    0%{transform: translate(0, 0)}
                    50%{transform: translate(-10px, 0)}
                    100%{transform: translate(0, 0)}
                }

                .triangle-float1 {
                    animation: float1 5s infinite;
                }

                @keyframes float2 {
                    0%{transform: translate(0, 0)}
                    50%{transform: translate(-5px, -5px)}
                    100%{transform: translate(0, 0)}
                }

                .triangle-float2 {
                    animation: float2 4s infinite;
                }

                @keyframes float3 {
                    0%{transform: translate(0, 0)}
                    50%{transform: translate(0, -10px)}
                    100%{transform: translate(0, 0)}
                }

                .triangle-float3 {
                    animation: float3 6s infinite;
                }
            </style></defs></svg>